<?xml version="1.0" ?>
<!-- Uploaded to: SVG Repo, www.svgrepo.com, Generator: SVG Repo Mixer Tools -->
<svg width="800px" height="800px" viewBox="0 0 64 64" data-name="Medium Beer Glass" id="Medium_Beer_Glass" xmlns="http://www.w3.org/2000/svg">
<rect fill="none" height="64" id="rect2317-8" transform="translate(0 0)" width="64"/>
<g id="g2166" transform="translate(12.269 3.15)">
<path d="M32.912,55.008V45.2c3.925-.231,5.649-1.864,7.2-4.538,1.678-2.895,1.875-12.885,1.877-12.985V10.645a.974.974,0,0,0-1.008-.935H32.912V1.657H1.66V55.008H32.912m.541-42.747h5.7c.3,0,.545.332.545.738l0,14.135c0,.08-.108,9.078-1.015,11.366a5.341,5.341,0,0,1-5.231,3.608c-.3,0-.545-.332-.545-.738l0-28.37c0-.407.245-.738.545-.738m-.541,45H1.66A2.255,2.255,0,0,1-.6,55.008V1.657A2.255,2.255,0,0,1,1.66-.6H32.912a2.255,2.255,0,0,1,2.257,2.253v5.8h5.809a3.231,3.231,0,0,1,3.265,3.188V27.681q0,.02,0,.04c0,.026-.05,2.625-.319,5.607-.562,6.225-1.54,7.912-1.861,8.467-1.36,2.35-3.157,4.581-6.893,5.38v7.834a2.255,2.255,0,0,1-2.257,2.253Zm2.253-42.747,0,24.932a3.366,3.366,0,0,0,1.422-1.775c.072-.183.445-1.318.692-5.8.132-2.4.162-4.566.165-4.748l0-12.607H35.165Z" id="path2168" transform="translate(0.596 0.596)"/>
</g>
<g id="g2170" transform="translate(16.684 25.965)">
<path d="M0,7.814A10.488,10.488,0,0,1,7.347,5.789c4.695.32,6.843,3.345,11.4,3.665A16.824,16.824,0,0,0,27,7.814V34.474a3.113,3.113,0,0,1-.234,1.222.883.883,0,0,1-.713.411H1.262A1.781,1.781,0,0,1,.388,35.5,2.948,2.948,0,0,1,0,34.315Z" id="path2172" transform="translate(0 -5.759)"/>
</g>
</svg>