<?xml version="1.0" encoding="iso-8859-1"?>
<!-- Uploaded to: SVG Repo, www.svgrepo.com, Generator: SVG Repo Mixer Tools -->
<svg fill="#000000" height="800px" width="800px" version="1.1" id="Layer_1" xmlns="http://www.w3.org/2000/svg" xmlns:xlink="http://www.w3.org/1999/xlink" 
	 viewBox="0 0 472.65 472.65" xml:space="preserve">
<g transform="translate(0 -540.36)">
	<g>
		<g>
			<path d="M276.075,881.51h-17.6c-3.2-8.7-11.8-15.1-21.6-15.1c-10.4,0-19.4,6.3-22.7,15.1h-17.6c-4.1,0-7.5,3.4-7.5,7.5v69.8
				c0,4.1,3.4,7.5,7.5,7.5h79.5h0c4.2,0,7.5-3.4,7.5-7.5v-69.8C283.575,884.91,280.175,881.51,276.075,881.51z M268.675,951.31
				h-64.5v-54.8h16.2c4.1,0,7.5-3.4,7.5-7.5c0-4.2,4.1-7.6,9.1-7.6c4.1,0,7.9,3.6,7.9,7.6c0,4.1,3.4,7.5,7.5,7.5h16.3V951.31z"/>
			<path d="M310.562,830.31L310.562,830.31c0-0.1,0-0.3,0-0.4c-3.7-29-11-57.3-21.8-84.4l-11.8-31.2c-5.9-18.4-9.1-38.6-9.1-56.9
				v-33.6c1.9-1,3.7-2.5,5-4.3c2.2-3,2.9-6.6,2-10l-5.9-54.1c-0.1-0.9-0.4-1.8-0.8-2.6c-1.2-2.3-3.3-6.5-7.8-8.1
				c-0.8-0.7-1.8-1.2-2.9-1.5c-14.3-3.8-28.7-3.8-43,0c-1.1,0.3-2.1,0.8-2.9,1.6c-4.2,1.5-7.2,5.7-7.4,10.9l-7.1,54.3
				c0,0.3-0.1,0.6-0.1,1c0,6,3.4,11.2,8.3,13.4v33.2c0,19.4-3.6,39.5-10.2,56.7l-11.9,31.5c-11.6,31.9-19.1,65.6-22.9,103
				c0,0.1,0,0.1,0,0.2c-2.7,32.9-3.5,61.7-2.4,88v63.8c0,3.9,2.9,7.1,6.8,7.5l11.8,1.2c19.9,2.4,39.7,3.5,59.7,3.5
				c19.9,0,40-1.2,60.5-3.5l11.8-1.2c3.8-0.4,6.8-3.6,6.8-7.5v-64C315.362,900.41,312.962,864.81,310.562,830.31z M219.162,558.11
				c0.4-0.2,0.8-0.5,1.2-0.9c10.5-2.5,21.1-2.5,31.6,0c0.7,0.6,1.5,1.1,2.4,1.4l5.6,51.8h-47h-0.7L219.162,558.11z M209.162,719.61
				c7.2-18.8,11.2-40.9,11.2-62v-32.2l0.1,0h32.4v32.1c0,19.8,3.5,41.7,9.8,61.6c0,0.1,0.1,0.3,0.1,0.4l1.8,4.8l-27.7,16.5
				l-29.3-16.9L209.162,719.61z M197.462,750.91L197.462,750.91l4.9-12.9l34.8,20.1l33-19.6l4.7,12.4c0,0,0,0.1,0.1,0.1
				c0.4,0.9,0.7,1.8,1.1,2.8l-39.4,25.1l-39.9-25.4C196.862,752.61,197.162,751.71,197.462,750.91z M295.262,994.41h-0.1
				c-39.9,4.6-78.1,4.6-116.8,0c-0.1,0-0.1,0-0.2,0l-5.1-0.5v-57.2c0-0.1,0-0.2,0-0.3c-1.1-25.8-0.3-54,2.3-86.3
				c3-29.4,8.4-56.4,16.3-82l44.8,28.6l44.6-28.5c6.9,20.5,11.8,41.8,14.5,63.3c2.3,34.1,4.7,69.4,4.7,105.1v57.3l0.1,0
				L295.262,994.41z"/>
		</g>
	</g>
</g>
</svg>