<?xml version="1.0" encoding="iso-8859-1"?>
<!-- Uploaded to: SVG Repo, www.svgrepo.com, Generator: SVG Repo Mixer Tools -->
<svg fill="#000000" height="800px" width="800px" version="1.1" id="Layer_1" xmlns="http://www.w3.org/2000/svg" xmlns:xlink="http://www.w3.org/1999/xlink" 
	 viewBox="0 0 511.999 511.999" xml:space="preserve">
<g>
	<g>
		<path d="M329.219,356.454c-2.546-7.217-5.432-15.398-8.667-25.434l-1.118-3.467l12.181-22.347
			c0.161-0.297,0.309-0.602,0.441-0.913c7.437-17.607,11.208-36.224,11.208-55.338v-3.03v-86.634v-1.949
			c0.002-30.618-13.522-59.38-37.103-78.911l-12.761-10.57V56.588c2.445-1.863,4.03-4.798,4.03-8.108V10.199
			C297.429,4.567,292.861,0,287.229,0h-62.458c-5.633,0-10.199,4.567-10.199,10.199V48.48c0,3.311,1.585,6.245,4.03,8.107V67.86
			l-12.761,10.57c-23.581,19.53-37.105,48.294-37.105,78.911v1.949v86.634v3.03c0,19.113,3.771,37.731,11.208,55.338
			c0.132,0.311,0.278,0.616,0.441,0.913l12.181,22.349l-1.118,3.466c-3.235,10.036-6.121,18.216-8.667,25.434
			c-9.056,25.671-14.045,39.812-14.045,78.859v42.394c0,18.908,15.383,34.292,34.293,34.292h105.943
			c18.909,0,34.293-15.383,34.293-34.292v-42.394C343.264,396.266,338.274,382.125,329.219,356.454z M234.971,20.398h42.059v17.882
			h-42.059V20.398z M218.853,94.141l16.454-13.629c2.339-1.937,3.693-4.817,3.693-7.854V58.679h34v13.977
			c0,3.038,1.353,5.918,3.693,7.854l16.454,13.629c16.751,13.875,27.167,33.567,29.306,54.952H189.547
			C191.686,127.707,202.102,108.016,218.853,94.141z M189.135,169.491h133.732v66.236H189.135V169.491z M322.866,477.706
			c0,7.662-6.233,13.893-13.894,13.893H203.029c-7.662,0-13.894-6.232-13.894-13.893v-42.394c0-4.323,0.061-8.285,0.182-11.963
			h51.573c5.633,0,10.199-4.567,10.199-10.199c0-5.632-4.566-10.199-10.199-10.199h-49.931c0.542-3.825,1.209-7.376,2.002-10.831
			h91.247c5.632,0,10.199-4.567,10.199-10.199c0-5.632-4.567-10.199-10.199-10.199h-85.159c0.923-2.677,1.911-5.48,2.97-8.483
			c0.275-0.781,0.557-1.58,0.84-2.385c0.251,0.018,0.502,0.039,0.758,0.039h72.532c5.632,0,10.199-4.567,10.199-10.199
			s-4.567-10.199-10.199-10.199h-66.331c0.345-1.054,0.693-2.117,1.046-3.215l2.461-7.633c0.858-2.66,0.585-5.557-0.752-8.01
			l-14.029-25.738c-5.318-12.732-8.403-26.078-9.201-39.772h133.315c-0.798,13.691-3.882,27.037-9.201,39.77l-14.029,25.738
			c-1.338,2.454-1.609,5.351-0.752,8.01l2.461,7.633c3.321,10.301,6.256,18.621,8.846,25.96
			c8.846,25.075,12.883,36.518,12.883,72.074V477.706z"/>
	</g>
</g>
<g>
	<g>
		<path d="M292.266,402.952h-14.103c-5.632,0-10.199,4.567-10.199,10.199s4.567,10.199,10.199,10.199h14.103
			c5.632,0,10.199-4.567,10.199-10.199S297.898,402.952,292.266,402.952z"/>
	</g>
</g>
</svg>