<svg xmlns="http://www.w3.org/2000/svg" viewBox="0 0 128 128" role="img" aria-label="Алкосчёт">
  <defs><linearGradient id="g" x1="20" y1="16" x2="108" y2="112" gradientUnits="userSpaceOnUse"><stop offset="0" stop-color="#c3153a"/><stop offset="0.55" stop-color="#b70f31"/><stop offset="1" stop-color="#8f0d27"/></linearGradient></defs>
  <path d="M64 28C69.5 17.8 79 12.5 90 14.5C105.5 17.4 114.2 32.6 110.8 49.2C106.9 68.7 87.7 88.8 72.2 103.8C69.1 106.8 66.3 109.3 64 111.2C61.7 109.3 58.9 106.8 55.8 103.8C40.3 88.8 21.1 68.7 17.2 49.2C13.8 32.6 22.5 17.4 38 14.5C49 12.5 58.5 17.8 64 28Z" fill="none" stroke="url(#g)" stroke-width="5.2" stroke-linecap="round" stroke-linejoin="round"/>
  <path d="M49.5 39H78.5L76.2 61.2C75.1 72.3 69.4 79.2 64 79.2C58.6 79.2 52.9 72.3 51.8 61.2L49.5 39Z" fill="none" stroke="url(#g)" stroke-width="4.8" stroke-linecap="round" stroke-linejoin="round"/>
  <path d="M55 53.5C60.5 56.5 68.1 56.5 73 53.5L72.2 62C71.4 69.5 67.4 74.2 64 74.2C60.6 74.2 56.6 69.5 55.8 62L55 53.5Z" fill="#b70f31" opacity=".94"/>
  <path d="M64 79V104M51 105H77" fill="none" stroke="url(#g)" stroke-width="4.8" stroke-linecap="round"/>
</svg>